<svg width="64" height="64" viewBox="0 0 64 64" fill="none" xmlns="http://www.w3.org/2000/svg">
<path d="M18.875 33.8742V28.2492H1.875C0.838625 28.2492 0 27.4106 0 26.3742V15.1242C0 14.0879 0.838625 13.2492 1.875 13.2492H18.875V7.62425C18.875 6.93938 19.2485 6.3095 19.8472 5.98C20.4496 5.65225 21.1784 5.676 21.757 6.04225L42.382 19.1672C42.9221 19.5115 43.2499 20.1084 43.2499 20.7492C43.2499 21.3901 42.9221 21.987 42.382 22.3312L21.757 35.4562C20.5037 36.247 18.875 35.3496 18.875 33.8742Z" fill="url(#paint0_linear)"/>
<path d="M42.2429 57.9562L21.6179 44.8312C21.0777 44.487 20.75 43.8901 20.75 43.2492C20.75 42.6083 21.0777 42.0115 21.6179 41.6672L42.2429 28.5422C42.8196 28.1778 43.5521 28.1522 44.1526 28.48C44.7514 28.8096 45.1249 29.4395 45.1249 30.1242V35.7492H62.1249C63.1612 35.7492 63.9999 36.5878 63.9999 37.6242V48.8742C63.9999 49.9106 63.1612 50.7492 62.1249 50.7492H45.125V56.3742C45.125 57.8556 43.4925 58.7446 42.2429 57.9562Z" fill="url(#paint1_linear)"/>
<defs>
<linearGradient id="paint0_linear" x1="21.625" y1="35.7502" x2="21.625" y2="5.74988" gradientUnits="userSpaceOnUse">
<stop stop-color="#A93AFF"/>
<stop offset="1" stop-color="#FF81FF"/>
</linearGradient>
<linearGradient id="paint1_linear" x1="42.375" y1="58.2501" x2="42.375" y2="28.2505" gradientUnits="userSpaceOnUse">
<stop stop-color="#A93AFF"/>
<stop offset="1" stop-color="#FF81FF"/>
</linearGradient>
</defs>
</svg>
