<svg width="44" height="48" viewBox="0 0 44 48" fill="none" xmlns="http://www.w3.org/2000/svg">
<path d="M24.8126 48H7.93545C7.15807 48 6.52903 47.371 6.52903 46.5936V44.962C6.52903 38.9063 5.11707 32.2759 2.21636 25.0762C1.34559 22.9102 0.90332 20.6235 0.90332 18.2775C0.90332 12.4472 3.7217 6.91483 8.44364 3.48118C13.2508 -0.0115392 19.3682 -0.928998 25.2383 0.969115C32.4215 3.29713 37.2919 10.045 37.4649 17.8448L42.8598 25.9359C43.0823 26.271 43.1538 26.6872 43.0493 27.0773C42.9449 27.4673 42.6785 27.7942 42.3186 27.9741L37.4703 30.3982V40.7803C37.4703 41.5576 36.8413 42.1867 36.0639 42.1867H26.2189V46.5935C26.219 47.371 25.5899 48 24.8126 48ZM37.4704 18.2775H37.4979H37.4704Z" fill="url(#paint0_linear)"/>
<path d="M29.0318 21.0904C29.0318 16.0374 21.1343 7.09066 20.2334 6.08666C19.7004 5.49333 18.6731 5.49333 18.1402 6.08666C17.2393 7.09066 9.3418 16.0374 9.3418 21.0904C9.3418 26.0368 13.0219 30.1034 17.7804 30.7932V35.1547C17.7804 35.932 18.4094 36.5611 19.1868 36.5611C19.9642 36.5611 20.5932 35.932 20.5932 35.1547V30.7932C25.3516 30.1033 29.0318 26.0367 29.0318 21.0904Z" fill="url(#paint1_linear)"/>
<defs>
<linearGradient id="paint0_linear" x1="22" y1="48" x2="22" y2="-5.72205e-06" gradientUnits="userSpaceOnUse">
<stop stop-color="#5558FF"/>
<stop offset="1" stop-color="#00C0FF"/>
</linearGradient>
<linearGradient id="paint1_linear" x1="19.1868" y1="36.5611" x2="19.1868" y2="5.64166" gradientUnits="userSpaceOnUse">
<stop stop-color="#ADDCFF"/>
<stop offset="0.5028" stop-color="#EAF6FF"/>
<stop offset="1" stop-color="#EAF6FF"/>
</linearGradient>
</defs>
</svg>
