<svg width="64" height="49" viewBox="0 0 64 49" fill="none" xmlns="http://www.w3.org/2000/svg">
<path d="M26.7997 33.6546L16.6552 26.9748C15.7909 26.3981 14.6264 26.6325 14.0551 27.4948C13.4801 28.3572 13.7127 29.52 14.5751 30.095L24.7196 36.7747C25.0399 36.9871 25.4007 37.0897 25.7578 37.0897C26.3639 37.0897 26.9589 36.7967 27.3197 36.2547C27.8947 35.3923 27.6622 34.2296 26.7997 33.6546ZM45.4257 20.7548C44.5871 20.1525 43.4152 20.3483 42.8109 21.1906L34.8343 32.1825C34.2319 33.0247 34.4278 34.1966 35.2701 34.7972C35.5997 35.0335 35.9806 35.147 36.3577 35.147C36.9437 35.147 37.5186 34.8741 37.8848 34.3615L45.8614 23.3696C46.4639 22.5273 46.2681 21.3555 45.4257 20.7548Z" fill="url(#paint0_linear)"/>
<path d="M9.375 15C4.20587 15 0 19.2059 0 24.375C0 29.5441 4.20587 33.75 9.375 33.75C14.5441 33.75 18.75 29.5441 18.75 24.375C18.75 19.2059 14.5441 15 9.375 15ZM32 30C26.8309 30 22.625 34.2059 22.625 39.375C22.625 44.5441 26.8309 48.75 32 48.75C37.1691 48.75 41.375 44.5441 41.375 39.375C41.375 34.2059 37.1691 30 32 30ZM50.875 0C43.6386 0 37.75 5.88863 37.75 13.125C37.75 20.3614 43.6386 26.25 50.875 26.25C58.1114 26.25 64 20.3614 64 13.125C64 5.88863 58.1114 0 50.875 0Z" fill="url(#paint1_linear)"/>
<defs>
<linearGradient id="paint0_linear" x1="29.9753" y1="37.0897" x2="29.9753" y2="20.4053" gradientUnits="userSpaceOnUse">
<stop stop-color="#ADDCFF"/>
<stop offset="0.5028" stop-color="#EAF6FF"/>
<stop offset="1" stop-color="#EAF6FF"/>
</linearGradient>
<linearGradient id="paint1_linear" x1="32" y1="48.75" x2="32" y2="0" gradientUnits="userSpaceOnUse">
<stop stop-color="#5558FF"/>
<stop offset="1" stop-color="#00C0FF"/>
</linearGradient>
</defs>
</svg>
